<?xml version="1.0" standalone="no"?>
<!DOCTYPE svg PUBLIC "-//W3C//DTD SVG 20010904//EN"
 "http://www.w3.org/TR/2001/REC-SVG-20010904/DTD/svg10.dtd">
<svg version="1.0" xmlns="http://www.w3.org/2000/svg"
 width="640.000000pt" height="640.000000pt" viewBox="0 0 640.000000 640.000000"
 preserveAspectRatio="xMidYMid meet">
<metadata>
Created by potrace 1.11, written by Peter Selinger 2001-2013
</metadata>
<g transform="translate(0.000000,640.000000) scale(0.100000,-0.100000)"
fill="#000000" stroke="none">
<path d="M4700 4231 c-195 -460 -405 -954 -466 -1098 l-112 -262 37 18 c20 10
227 110 461 221 234 111 428 205 433 209 4 4 6 399 5 877 l-3 870 -355 -835z"/>
<path d="M1262 4190 l3 -873 290 -136 c160 -75 326 -153 370 -173 44 -20 124
-58 179 -83 54 -25 100 -45 101 -43 2 2 -92 224 -209 493 -117 270 -329 758
-471 1085 -142 327 -259 597 -261 599 -2 3 -3 -388 -2 -869z"/>
<path d="M1736 2497 c-258 -200 -468 -367 -468 -371 1 -4 309 -245 684 -537
376 -291 799 -619 940 -729 141 -110 262 -200 270 -200 7 1 126 90 264 198
139 108 563 440 944 737 690 538 691 539 668 556 -13 10 -223 173 -468 362
-245 190 -448 343 -451 341 -3 -2 -149 -335 -324 -741 -175 -406 -319 -739
-320 -741 -2 -2 -69 -10 -151 -19 -135 -14 -162 -13 -308 2 -89 9 -164 19
-168 23 -4 4 -147 336 -319 737 -172 402 -315 733 -318 737 -4 4 -218 -156
-475 -355z"/>
</g>
</svg>
